<svg xmlns="http://www.w3.org/2000/svg" viewBox="0 0 512 512">
  <g fill-rule="evenodd" clip-rule="evenodd">
    <path fill="#fff8ef" d="M20.509 42.123h435.464c5.357 0 9.724 4.365 9.724 9.723v340.842c0 5.329-4.366 9.695-9.724 9.695H20.509c-5.329 0-9.694-4.366-9.694-9.695V51.846c-.001-5.358 4.365-9.723 9.694-9.723z"/>
    <path fill="#fff1dd" d="M426.86 42.123h29.112c5.357 0 9.724 4.365 9.724 9.723v340.842c0 5.329-4.366 9.695-9.724 9.695H426.86c5.329 0 9.694-4.366 9.694-9.695V51.846c.001-5.358-4.364-9.723-9.694-9.723z"/>
    <g fill="#c3ddff">
      <path d="M60.591 105.195h43.456c3.203 0 5.84 2.608 5.84 5.811v43.455c0 3.203-2.637 5.839-5.84 5.839H60.591c-3.203 0-5.84-2.636-5.84-5.839v-43.455c0-3.203 2.637-5.811 5.84-5.811zM60.591 204.239h43.456c3.203 0 5.84 2.636 5.84 5.839v43.456c0 3.203-2.637 5.839-5.84 5.839H60.591c-3.203 0-5.84-2.636-5.84-5.839v-43.456c0-3.203 2.637-5.839 5.84-5.839zM60.591 303.31h43.456c3.203 0 5.84 2.636 5.84 5.84v43.456c0 3.203-2.637 5.839-5.84 5.839H60.591c-3.203 0-5.84-2.636-5.84-5.839V309.15c0-3.203 2.637-5.84 5.84-5.84zM164.539 105.195h43.455c3.203 0 5.839 2.608 5.839 5.811v43.455c0 3.203-2.636 5.839-5.839 5.839h-43.455c-3.203 0-5.839-2.636-5.839-5.839v-43.455c0-3.203 2.636-5.811 5.839-5.811zM164.539 204.239h43.455c3.203 0 5.839 2.636 5.839 5.839v43.456c0 3.203-2.636 5.839-5.839 5.839h-43.455c-3.203 0-5.839-2.636-5.839-5.839v-43.456c0-3.203 2.636-5.839 5.839-5.839zM164.539 303.31h43.455c3.203 0 5.839 2.636 5.839 5.84v43.456c0 3.203-2.636 5.839-5.839 5.839h-43.455c-3.203 0-5.839-2.636-5.839-5.839V309.15c0-3.203 2.636-5.84 5.839-5.84zM268.486 105.195h43.456c3.203 0 5.84 2.608 5.84 5.811v43.455c0 3.203-2.637 5.839-5.84 5.839h-43.456c-3.203 0-5.81-2.636-5.81-5.839v-43.455a5.818 5.818 0 015.81-5.811zM372.435 105.195h43.483a5.82 5.82 0 015.811 5.811v43.455c0 3.203-2.608 5.839-5.811 5.839h-43.483c-3.204 0-5.812-2.636-5.812-5.839v-43.455a5.82 5.82 0 015.812-5.811z"/>
    </g>
    <path fill="#ff8086" d="M465.696 61.229V22.167c0-8.079-6.605-14.655-14.656-14.655H25.47c-8.079 0-14.655 6.576-14.655 14.655v39.062z"/>
    <path fill="#e5646e" d="M465.696 61.229V22.167c0-8.079-6.605-14.655-14.656-14.655h-29.141c8.079 0 14.655 6.576 14.655 14.655v39.062z"/>
    <path fill="#c2bcc1" d="M388.365 437.987c62.137 0 112.849-50.684 112.849-112.849s-50.712-112.849-112.849-112.849c-62.164 0-112.849 50.684-112.849 112.849.001 62.165 50.685 112.849 112.849 112.849z"/>
    <path fill="#b5aeb4" d="M388.365 212.289c62.307 0 112.849 50.514 112.849 112.849 0 62.334-50.542 112.849-112.849 112.849-4.932 0-9.808-.312-14.569-.935 55.445-7.143 98.277-54.511 98.277-111.913 0-57.375-42.832-104.77-98.277-111.914a112.25 112.25 0 0114.569-.936z"/>
    <path fill="#dbeaff" d="M388.365 407.854c45.553 0 82.716-37.163 82.716-82.716s-37.163-82.716-82.716-82.716c-45.554 0-82.716 37.163-82.716 82.716s37.162 82.716 82.716 82.716z"/>
    <path fill="#c3ddff" d="M389.357 242.422c45.695 0 82.716 37.049 82.716 82.716 0 45.695-37.021 82.716-82.716 82.716-4.96 0-9.808-.425-14.541-1.275 38.721-6.889 68.146-40.735 68.146-81.44 0-40.706-29.425-74.552-68.146-81.44a84.743 84.743 0 0114.541-1.277z"/>
    <path fill="#a8a1a7" d="M295.785 389.684l28.034 28.034-80.986 81.016c-7.738 7.71-20.352 7.71-28.064 0-7.71-7.711-7.71-20.354 0-28.064z"/>
  </g>
  <path d="M220.07 475.971c-2.382 2.41-3.572 5.556-3.572 8.731s1.191 6.321 3.572 8.731c2.41 2.381 5.557 3.572 8.732 3.572s6.321-1.19 8.702-3.572l74.949-74.921a120.192 120.192 0 01-15.393-14.995 60.136 60.136 0 01-2.069-2.466l-74.921 74.92zm129.006-186.72c0-4.139 3.374-7.483 7.513-7.483a7.475 7.475 0 017.482 7.483v71.774c0 4.139-3.345 7.512-7.482 7.512-4.139 0-7.513-3.374-7.513-7.512zm58.537-7.483c8.163 0 15.59 3.316 20.977 8.702 5.385 5.386 8.73 12.812 8.73 21.005v27.354c0 8.164-3.346 15.591-8.73 20.977-5.387 5.386-12.813 8.731-20.977 8.731-8.192 0-15.619-3.345-21.005-8.731-5.357-5.386-8.702-12.812-8.702-20.977v-27.354c0-8.193 3.345-15.62 8.702-21.005 5.386-5.386 12.813-8.702 21.005-8.702zm10.375 19.303a14.66 14.66 0 00-10.375-4.309c-4.054 0-7.711 1.644-10.403 4.309a14.677 14.677 0 00-4.309 10.404v27.354c0 4.025 1.643 7.71 4.309 10.375 2.692 2.665 6.35 4.309 10.403 4.309a14.66 14.66 0 0010.375-4.309c2.664-2.665 4.336-6.35 4.336-10.375v-27.354c0-4.054-1.672-7.739-4.336-10.404zM264.943 409.895H10.814c-4.139 0-7.512-3.373-7.512-7.512v-38.835c0-4.139 3.373-7.483 7.512-7.483s7.483 3.345 7.483 7.483V394.9h261.669l6.18-6.208c-11.481-18.454-18.142-40.224-18.142-63.554 0-33.223 13.464-63.327 35.264-85.097 21.77-21.771 51.846-35.264 85.097-35.264 26.022 0 50.117 8.277 69.818 22.337v-93.091c0-4.138 3.374-7.484 7.513-7.484a7.476 7.476 0 017.482 7.484v105.762c22.791 22.507 35.519 53.349 35.519 85.353 0 29.934-10.941 57.317-29.026 78.379-18.397 21.374-44.108 36.227-73.249 40.621-4.109.624-7.908-2.211-8.531-6.293-.624-4.11 2.211-7.908 6.292-8.532 25.54-3.855 48.049-16.838 64.121-35.519 15.817-18.426 25.398-42.407 25.398-68.656 0-29.085-11.792-55.419-30.841-74.496-19.077-19.049-45.412-30.842-74.496-30.842-29.112 0-55.446 11.793-74.495 30.842C294.793 269.72 283 296.054 283 325.138c0 25.285 9.043 49.578 25.428 68.656 16.384 19.077 39.146 31.749 64.092 35.519a7.517 7.517 0 016.322 8.532c-.624 4.082-4.451 6.917-8.533 6.293a119.801 119.801 0 01-45.497-16.81l-76.678 76.707c-5.329 5.301-12.331 7.965-19.332 7.965-7.002 0-14.004-2.664-19.334-7.965-5.328-5.329-7.965-12.332-7.965-19.333s2.637-14.003 7.965-19.332zm123.422-174.957c24.917 0 47.452 10.092 63.78 26.419 16.328 16.328 26.42 38.863 26.42 63.781 0 24.916-10.092 47.48-26.42 63.78-16.328 16.328-38.863 26.447-63.78 26.447s-47.481-10.12-63.809-26.447c-16.327-16.3-26.419-38.864-26.419-63.78 0-24.918 10.092-47.453 26.419-63.781 16.328-16.327 38.892-26.419 63.809-26.419zm53.179 37.021c-13.606-13.606-32.429-22.025-53.179-22.025-20.777 0-39.572 8.419-53.179 22.025-13.635 13.607-22.053 32.4-22.053 53.179 0 20.778 8.418 39.572 22.053 53.178 13.607 13.607 32.401 22.026 53.179 22.026 20.75 0 39.572-8.419 53.179-22.026 13.607-13.606 22.025-32.4 22.025-53.178 0-20.779-8.418-39.572-22.025-53.179zM324.727 42.35c-4.138 0-7.512-3.345-7.512-7.484a7.507 7.507 0 017.512-7.512h16.583a7.507 7.507 0 017.512 7.512c0 4.139-3.373 7.484-7.512 7.484zm91.787 0a7.476 7.476 0 01-7.483-7.484c0-4.167 3.345-7.512 7.483-7.512h16.611a7.507 7.507 0 017.513 7.512c0 4.139-3.374 7.484-7.513 7.484zm-45.893 0a7.478 7.478 0 01-7.485-7.484c0-4.167 3.347-7.512 7.485-7.512h16.61c4.139 0 7.483 3.345 7.483 7.512a7.476 7.476 0 01-7.483 7.484zm87.563 11.367v-31.55c0-1.984-.794-3.77-2.098-5.046-1.304-1.304-3.089-2.126-5.046-2.126H25.47a7.04 7.04 0 00-5.046 2.126 7.043 7.043 0 00-2.126 5.046v31.55zm14.995-31.55v77.897a7.475 7.475 0 01-7.482 7.483c-4.139 0-7.513-3.345-7.513-7.483V68.741H18.298v260.848a7.476 7.476 0 01-7.483 7.483c-4.139 0-7.512-3.345-7.512-7.483V22.168c0-6.123 2.494-11.651 6.491-15.676C13.819 2.494 19.347 0 25.47 0h425.57c6.095 0 11.623 2.494 15.648 6.491 3.997 4.025 6.491 9.553 6.491 15.676zm-45.241 66.189c2.947-2.919 7.682-2.919 10.602 0 2.948 2.949 2.948 7.683 0 10.602l-9.298 9.326V160.3c0 4.139-3.373 7.484-7.512 7.484h-52.016l-9.299 9.326a7.545 7.545 0 01-10.63 0c-2.92-2.92-2.92-7.682 0-10.602l9.326-9.327v-51.988c0-4.139 3.373-7.512 7.512-7.512h51.988zm-13.72 34.924l-29.48 29.509h29.48zm-40.111 18.908l29.509-29.509h-29.509zm-50.118-53.832c2.92-2.919 7.683-2.919 10.602 0 2.92 2.949 2.92 7.683 0 10.602l-9.325 9.326V160.3a7.476 7.476 0 01-7.483 7.484h-52.017l-9.326 9.326c-2.92 2.92-7.654 2.92-10.602 0-2.92-2.92-2.92-7.682 0-10.602l9.326-9.327v-51.988c0-4.139 3.373-7.512 7.512-7.512h51.988zm-13.718 34.924l-29.51 29.509h29.51zm-40.112 18.908l29.51-29.509h-29.51zm-50.116 45.241c2.919-2.92 7.682-2.92 10.602 0 2.919 2.919 2.919 7.682 0 10.602l-9.326 9.326v52.016a7.478 7.478 0 01-7.485 7.484h-52.016l-9.325 9.326c-2.92 2.919-7.684 2.919-10.603 0-2.92-2.92-2.92-7.683 0-10.602l9.326-9.326v-52.017a7.477 7.477 0 017.484-7.484h52.016zm-13.722 34.923l-29.508 29.509h29.508zm-40.109 18.908l29.508-29.509h-29.508zm53.831-152.904c2.919-2.919 7.682-2.919 10.602 0 2.919 2.949 2.919 7.683 0 10.602l-9.326 9.326V160.3a7.478 7.478 0 01-7.485 7.484h-52.016l-9.325 9.326c-2.92 2.92-7.684 2.92-10.603 0-2.92-2.92-2.92-7.682 0-10.602l9.326-9.327v-51.988c0-4.139 3.346-7.512 7.484-7.512h52.016zm-13.722 34.924l-29.508 29.509h29.508zm-40.109 18.908l29.508-29.509h-29.508zm-50.118 45.241c2.92-2.92 7.682-2.92 10.601 0 2.92 2.919 2.92 7.682 0 10.602l-9.326 9.326v52.016a7.476 7.476 0 01-7.482 7.484H57.869l-9.325 9.326c-2.92 2.919-7.683 2.919-10.601 0-2.92-2.92-2.92-7.683 0-10.602l9.325-9.326v-52.017a7.476 7.476 0 017.483-7.484h52.017zm-13.72 34.923l-29.51 29.509h29.51zM62.263 241.26l29.51-29.509h-29.51zm53.831-152.904c2.92-2.919 7.682-2.919 10.601 0 2.92 2.949 2.92 7.683 0 10.602l-9.326 9.326V160.3a7.476 7.476 0 01-7.482 7.484H57.869l-9.325 9.326c-2.92 2.92-7.683 2.92-10.601 0-2.92-2.92-2.92-7.682 0-10.602l9.325-9.327v-51.988c0-4.139 3.345-7.512 7.483-7.512h52.017zm-13.72 34.924l-29.51 29.509h29.51zm-40.111 18.908l29.51-29.509h-29.51zM158.7 295.827h55.133a7.477 7.477 0 017.485 7.483v55.135a7.477 7.477 0 01-7.485 7.483H158.7a7.476 7.476 0 01-7.484-7.483V303.31a7.476 7.476 0 017.484-7.483zm47.621 14.996h-40.109v40.111h40.109zm-151.57-14.996h55.136a7.475 7.475 0 017.482 7.483v55.135a7.475 7.475 0 01-7.482 7.483H54.751a7.476 7.476 0 01-7.483-7.483V303.31a7.476 7.476 0 017.483-7.483zm47.623 14.996H62.263v40.111h40.111z"/>
</svg>
